<svg id="efFxTtUyAXM1" xmlns="http://www.w3.org/2000/svg" xmlns:xlink="http://www.w3.org/1999/xlink" viewBox="0 0 911.340000 255.870000" shape-rendering="geometricPrecision" text-rendering="geometricPrecision"><style><![CDATA[#efFxTtUyAXM4_to {animation: efFxTtUyAXM4_to__to 2000ms linear 1 normal forwards}@keyframes efFxTtUyAXM4_to__to { 0% {transform: translate(802.474976px,-77.584999px)} 70% {transform: translate(802.474976px,-77.584999px)} 90% {transform: translate(802.474976px,182.415001px)} 100% {transform: translate(802.474976px,182.415001px)}} #efFxTtUyAXM5_to {animation: efFxTtUyAXM5_to__to 2000ms linear 1 normal forwards}@keyframes efFxTtUyAXM5_to__to { 0% {transform: translate(264.841118px,-63.030830px)} 15% {transform: translate(264.841118px,-63.030830px)} 35% {transform: translate(264.841118px,196.969170px)} 100% {transform: translate(264.841118px,196.969170px)}} #efFxTtUyAXM6_to {animation: efFxTtUyAXM6_to__to 2000ms linear 1 normal forwards}@keyframes efFxTtUyAXM6_to__to { 0% {transform: translate(449.367950px,-67.730042px)} 35% {transform: translate(449.367950px,-67.730042px)} 55% {transform: translate(449.367950px,192.269958px)} 100% {transform: translate(449.367950px,192.269958px)}} #efFxTtUyAXM7_to {animation: efFxTtUyAXM7_to__to 2000ms linear 1 normal forwards}@keyframes efFxTtUyAXM7_to__to { 0% {transform: translate(634.190002px,-213.039999px)} 65% {transform: translate(634.190002px,-213.039999px)} 85% {transform: translate(634.190002px,46.960001px)} 100% {transform: translate(634.190002px,46.960001px)}} #efFxTtUyAXM8_to {animation: efFxTtUyAXM8_to__to 2000ms linear 1 normal forwards}@keyframes efFxTtUyAXM8_to__to { 0% {transform: translate(77.107231px,-57.681770px)} 20% {transform: translate(77.107231px,202.318230px)} 100% {transform: translate(77.107231px,202.318230px)}} #efFxTtUyAXM9_to {animation: efFxTtUyAXM9_to__to 2000ms linear 1 normal forwards}@keyframes efFxTtUyAXM9_to__to { 0% {transform: translate(453.200012px,-220.142931px)} 40% {transform: translate(453.200012px,-220.142931px)} 60% {transform: translate(453.200012px,39.857069px)} 100% {transform: translate(453.200012px,39.857069px)}} #efFxTtUyAXM10_to {animation: efFxTtUyAXM10_to__to 2000ms linear 1 normal forwards}@keyframes efFxTtUyAXM10_to__to { 0% {transform: translate(634.175018px,-72.400002px)} 60% {transform: translate(634.175018px,-72.400002px)} 80% {transform: translate(634.175018px,187.599998px)} 100% {transform: translate(634.175018px,187.599998px)}} #efFxTtUyAXM11_to {animation: efFxTtUyAXM11_to__to 2000ms linear 1 normal forwards}@keyframes efFxTtUyAXM11_to__to { 0% {transform: translate(803.634888px,-208.270000px)} 75% {transform: translate(803.634888px,-208.270000px)} 95% {transform: translate(803.634888px,51.730000px)} 100% {transform: translate(803.634888px,51.730000px)}} #efFxTtUyAXM12_to {animation: efFxTtUyAXM12_to__to 2000ms linear 1 normal forwards}@keyframes efFxTtUyAXM12_to__to { 0% {transform: translate(325.734985px,-221.004681px)} 20% {transform: translate(325.734985px,-221.004681px)} 40% {transform: translate(325.734985px,38.995319px)} 100% {transform: translate(325.734985px,38.995319px)}} #efFxTtUyAXM13_to {animation: efFxTtUyAXM13_to__to 2000ms linear 1 normal forwards}@keyframes efFxTtUyAXM13_to__to { 0% {transform: translate(203.878487px,-223.845001px)} 20% {transform: translate(203.878487px,-223.845001px)} 40% {transform: translate(203.878487px,36.154999px)} 100% {transform: translate(203.878487px,36.154999px)}} #efFxTtUyAXM14_to {animation: efFxTtUyAXM14_to__to 2000ms linear 1 normal forwards}@keyframes efFxTtUyAXM14_to__to { 0% {transform: translate(124.935001px,-225.820000px)} 5% {transform: translate(124.935001px,-225.820000px)} 25% {transform: translate(124.935001px,34.180000px)} 100% {transform: translate(124.935001px,34.180000px)}}]]></style><g id="efFxTtUyAXM2"><g id="efFxTtUyAXM3"><g id="efFxTtUyAXM4_to" transform="translate(802.474976,-77.584999)"><path id="efFxTtUyAXM4" d="M766.340000,216.380000C762.470000,228.810000,758.620000,241.140000,754.750000,253.560000L693.610000,253.560000L740.340000,117.560000L798.710000,114.450000C793.390000,131.210000,788.140000,147.720000,782.930000,164.100000C782.960951,164.211288,783.004570,164.318657,783.060000,164.420000C783.098104,164.466424,783.151106,164.498225,783.210000,164.510000C783.506219,164.574514,783.807226,164.614648,784.110000,164.630000Q803.620000,164.630000,823.110000,164.630000C823.364612,164.576965,823.612727,164.496495,823.850000,164.390000C818.850000,147.670000,813.850000,130.960000,808.850000,113.960000C826.850000,112.960000,844.590000,112.050000,862.480000,111.070000Q886.940000,182.340000,911.340000,253.340000L911.200000,253.550000C911.200000,253.550000,911.120000,253.660000,911.070000,253.660000C910.708703,253.712685,910.344853,253.746066,909.980000,253.760000L850.340000,253.760000C846.690000,241.320000,843.040000,228.940000,839.340000,216.450000Z" transform="translate(-802.474976,-182.415001)" fill="rgb(246,246,246)" stroke="none" stroke-width="1"/></g><g id="efFxTtUyAXM5_to" transform="translate(264.841118,-63.030830)"><path id="efFxTtUyAXM5" d="M174.670000,147.680000L233.050000,144.570000C233.050000,145.290000,233.140000,145.940000,233.150000,146.570000C233.150000,153.380000,233.060000,160.190000,233.250000,167C233.276496,173.344557,234.768641,179.597189,237.610000,185.270000C241.644309,193.406681,249.488747,198.979274,258.500000,200.110000C263.908063,201.019071,269.451283,200.701241,274.720000,199.180000C284.650000,196.180000,290.960000,189.470000,294.220000,179.770000C295.750912,175.032079,296.510594,170.078949,296.470000,165.100000C296.470000,157.860000,296.470000,150.620000,296.470000,143.380000L296.470000,141.180000L354.850000,138.070000C354.850000,138.800000,354.950000,139.330000,354.950000,139.870000C354.950000,149.070000,355.090000,158.280000,354.950000,167.480000C354.570000,188.910000,348.120000,208.250000,334.270000,224.790000C322.010000,239.440000,306.270000,248.600000,287.810000,253.110000C275.734073,256.037289,263.211617,256.641353,250.910000,254.890000C233.370000,252.470000,217.640000,245.770000,204.220000,234.090000C189.680000,221.450000,180.870000,205.430000,176.830000,186.700000C175.355213,179.484272,174.634672,172.134759,174.680000,164.770000C174.680000,159.770000,174.680000,154.830000,174.680000,149.860000Z" transform="translate(-264.841118,-196.969170)" fill="rgb(246,246,246)" stroke="none" stroke-width="1"/></g><g id="efFxTtUyAXM6_to" transform="translate(449.367950,-67.730042)"><path id="efFxTtUyAXM6" d="M393,136L528.600000,128.770000C531.292195,132.622437,533.445439,136.824628,535,141.260000C537.347622,148.053804,538.875114,155.103770,539.550000,162.260000C540.251156,168.604338,540.458447,174.993555,540.170000,181.370000C539.320000,199.880000,532.660000,215.960000,519.800000,229.370000C511.140551,238.214343,500.550575,244.933193,488.860000,249C479.104993,252.536205,468.902338,254.687144,458.550000,255.390000C448.078652,256.080447,437.566460,255.829439,427.140000,254.640000C417.011660,253.597844,407.018404,251.510051,397.320000,248.410000C387.032256,245.052553,377.495346,239.727099,369.240000,232.730000C365.670000,229.730000,362.420000,226.380000,359.030000,223.180000C358.860000,223.020000,358.730000,222.810000,358.440000,222.460000L395.710000,183C396.033517,183.210316,396.341024,183.444288,396.630000,183.700000C403.190000,190.350000,411.180000,194.420000,420.130000,196.770000C430.863296,199.661100,441.972808,200.908602,453.080000,200.470000C459.180000,200.210000,465.180000,199.390000,470.810000,196.850000C478.810000,193.230000,482.740000,187.020000,482.810000,178.270000C482.862365,175.447418,482.508750,172.631963,481.760000,169.910000C480.520395,165.270964,477.270044,161.429974,472.900000,159.440000C469.952381,158.060988,466.813828,157.133918,463.590000,156.690000C454.680000,155.350000,445.770000,153.980000,436.840000,152.690000C429.775281,151.786216,422.802410,150.270520,416,148.160000C408.129767,145.736845,400.718285,142.019275,394.070000,137.160000C393.820000,136.980000,393.570000,136.800000,393.340000,136.600000C393.210786,136.409425,393.097087,136.208780,393,136Z" transform="translate(-449.367950,-192.269958)" fill="rgb(246,246,246)" stroke="none" stroke-width="1"/></g><g id="efFxTtUyAXM7_to" transform="translate(634.190002,-213.039999)"><path id="efFxTtUyAXM7" d="M546.690000,2.190000L721.690000,2.190000L721.690000,57.260000L663.580000,57.260000C663.370642,59.557043,663.313850,61.865441,663.410000,64.170000C663.410000,66.440000,663.410000,68.710000,663.410000,70.980000L663.410000,91.730000L605,88.810000L605,57.390000C602.430000,57.240000,600,57.330000,597.580000,57.310000C595.160000,57.290000,592.790000,57.310000,590.400000,57.310000L546.690000,57.310000Z" transform="translate(-634.190002,-46.960001)" fill="rgb(246,246,246)" stroke="none" stroke-width="1"/></g><g id="efFxTtUyAXM8_to" transform="translate(77.107231,-57.681770)"><path id="efFxTtUyAXM8" d="M95.750000,151.890000L154.040000,148.790000C154.090000,149.540000,154.170000,150.130000,154.170000,150.710000C154.170000,157.210000,154.270000,163.710000,154.170000,170.220000C153.920000,183.870000,151.370000,197,145.170000,209.290000C134.830000,229.700000,118.640000,243.290000,97.060000,250.550000C83.450721,255.044493,69.065387,256.705255,54.790000,255.430000C47.936569,254.972903,41.158581,253.728035,34.590000,251.720000C27.905269,249.640874,21.598166,246.500828,15.910000,242.420000C10.163100,238.197240,4.835280,233.432006,0,228.190000L38.370000,187.880000C39.540000,189.010000,40.610000,190.070000,41.730000,191.090000C42.850000,192.110000,44.020000,193.090000,45.200000,194.090000C49.248415,197.626901,54.307531,199.799592,59.660000,200.300000C65.210000,200.790000,70.660000,200.690000,76.030000,198.870000C85.640000,195.590000,91.820000,189.070000,94.280000,179.150000C95.209362,175.335053,95.699214,171.426305,95.740000,167.500000C95.800000,162.960000,95.740000,158.420000,95.740000,153.870000Z" transform="translate(-77.107231,-202.318230)" fill="rgb(246,246,246)" stroke="none" stroke-width="1"/></g><g id="efFxTtUyAXM9_to" transform="translate(453.200012,-220.142931)"><path id="efFxTtUyAXM9" d="M536.530000,30.180000L499.930000,69C499.340000,68.440000,498.810000,68,498.310000,67.450000C493.469890,62.802768,487.631023,59.324076,481.240000,57.280000C475.159122,55.122402,468.741522,54.069170,462.290000,54.170000C458.430000,54.240000,454.560000,54.170000,450.710000,54.390000C444.102235,54.668671,437.815620,57.316788,433,61.850000C428,66.640000,425.890000,72.560000,426.310000,79.500000C426.310000,79.500000,426.310000,79.500000,426.250000,79.570000C426.190000,79.640000,426.150000,79.680000,426.100000,79.680000C425.100000,79.680000,424.020000,79.740000,422.980000,79.680000C405.320000,78.800000,387.700000,77.900000,370,77C369.925831,76.509862,369.882413,76.015562,369.870000,75.520000C370.234329,65.881119,372.285364,56.380699,375.930000,47.450000C382.433636,31.697432,394.285755,18.744026,409.400000,10.870000C419.488419,5.500927,430.508956,2.106859,441.870000,0.870000C452.488954,-0.280028,463.201046,-0.280028,473.820000,0.870000C484.270113,1.808999,494.544132,4.163883,504.360000,7.870000C515.048016,12.077280,524.785914,18.381073,533,26.410000C534.110000,27.470000,535.170000,28.580000,536.240000,29.670000C536.348663,29.832893,536.445575,30.003325,536.530000,30.180000Z" transform="translate(-453.200012,-39.857069)" fill="rgb(246,246,246)" stroke="none" stroke-width="1"/></g><g id="efFxTtUyAXM10_to" transform="translate(634.175018,-72.400002)"><path id="efFxTtUyAXM10" d="M663.270000,253.580000L605.080000,253.580000L605.080000,124.730000L663.270000,121.620000Z" transform="translate(-634.175018,-187.599998)" fill="rgb(246,246,246)" stroke="none" stroke-width="1"/></g><g id="efFxTtUyAXM11_to" transform="translate(803.634888,-208.270000)"><path id="efFxTtUyAXM11" d="M859.140000,101.290000C857.140000,101.290000,855.340000,101.290000,853.570000,101.290000C851.800000,101.290000,850.020000,101.140000,848.240000,101.050000L843.100000,100.760000L837.770000,100.510000L832.440000,100.270000L827.120000,99.970000L821.800000,99.670000L816.650000,99.430000L811.320000,99.190000C809.550000,99.090000,807.760000,99.100000,806,98.860000C804.240000,98.620000,802.630000,98.790000,801,98.660000C799.370000,98.530000,797.450000,98.510000,795.670000,98.430000L790.350000,98.130000L785.210000,97.830000L779.880000,97.590000L774.550000,97.340000L769.230000,97.040000C767.450000,96.940000,765.680000,96.840000,763.900000,96.770000C762.120000,96.700000,760.470000,96.650000,758.760000,96.570000C757.050000,96.490000,755.210000,96.390000,753.430000,96.280000L748.130000,95.960000C748.210000,94.560000,779.010000,4.470000,780.130000,2.170000L825.130000,2.170000Z" transform="translate(-803.634888,-51.730000)" fill="rgb(246,246,246)" stroke="none" stroke-width="1"/></g><g id="efFxTtUyAXM12_to" transform="translate(325.734985,-221.004681)"><path id="efFxTtUyAXM12" d="M354.870000,2.210000L354.870000,75.860000C353.380000,76.310000,337.870000,75.650000,325.700000,74.860000C316.050000,74.220000,306.380000,73.860000,296.600000,73.330000L296.600000,2.400000C297.890000,2,350.440000,1.800000,354.870000,2.210000Z" transform="translate(-325.734985,-38.995319)" fill="rgb(246,246,246)" stroke="none" stroke-width="1"/></g><g id="efFxTtUyAXM13_to" transform="translate(203.878487,-223.845001)"><path id="efFxTtUyAXM13" d="M174.800000,2.180000L232.800000,2.180000C233.210000,3.480000,233.310000,67.810000,232.890000,70.130000L175,67.220000C174.590000,65.780000,174.440000,6,174.800000,2.180000Z" transform="translate(-203.878487,-36.154999)" fill="rgb(246,246,246)" stroke="none" stroke-width="1"/></g><g id="efFxTtUyAXM14_to" transform="translate(124.935001,-225.820000)"><path id="efFxTtUyAXM14" d="M95.870000,2.180000L154,2.180000L154,66.180000L95.870000,63.250000Z" transform="translate(-124.935001,-34.180000)" fill="rgb(246,246,246)" stroke="none" stroke-width="1"/></g></g></g></svg>