<?xml version="1.0" standalone="no"?>
<!DOCTYPE svg PUBLIC "-//W3C//DTD SVG 20010904//EN"
 "http://www.w3.org/TR/2001/REC-SVG-20010904/DTD/svg10.dtd">
<svg version="1.0" xmlns="http://www.w3.org/2000/svg"
 width="700.000000pt" height="700.000000pt" viewBox="0 0 700.000000 700.000000"
 preserveAspectRatio="xMidYMid meet">
<metadata>
Created by potrace 1.14, written by Peter Selinger 2001-2017
</metadata>
<g transform="translate(0.000000,700.000000) scale(0.100000,-0.100000)"
fill="#000000" stroke="none">
<path d="M3279 6645 c-3 -2 -36 -7 -74 -10 -90 -7 -137 -13 -205 -25 -30 -5
-73 -12 -95 -16 -125 -19 -432 -109 -575 -168 -147 -61 -314 -143 -404 -197
-17 -10 -44 -26 -61 -35 -66 -36 -256 -171 -355 -252 -102 -84 -327 -302 -404
-392 -21 -25 -64 -79 -95 -120 -31 -41 -59 -77 -62 -80 -12 -11 -115 -169
-169 -260 -114 -193 -227 -452 -289 -660 -17 -58 -36 -118 -41 -135 -5 -16
-12 -45 -15 -62 -3 -18 -12 -61 -20 -95 -8 -35 -16 -76 -19 -93 -9 -54 -18
-119 -22 -150 -2 -16 -6 -55 -10 -85 -10 -87 -13 -498 -4 -570 5 -36 11 -94
14 -130 4 -36 8 -72 11 -80 2 -8 6 -33 9 -55 10 -88 61 -299 103 -430 109
-338 265 -643 479 -932 95 -128 147 -187 304 -343 146 -146 176 -173 290 -261
241 -185 469 -317 734 -426 104 -43 297 -110 340 -119 10 -2 33 -8 50 -13 35
-12 243 -57 296 -65 173 -24 173 -24 300 -32 181 -12 515 -5 561 10 8 3 37 7
64 10 350 35 789 182 1140 381 471 266 885 672 1156 1131 42 71 172 319 175
334 0 3 5 16 11 30 49 117 66 161 101 270 39 117 84 289 97 370 3 19 8 42 10
50 6 21 13 66 21 135 3 33 8 63 10 66 5 9 18 264 18 364 0 190 -14 337 -50
555 -5 30 -12 66 -19 100 -4 14 -8 36 -11 50 -17 83 -82 303 -109 365 -7 17
-28 68 -46 115 -103 267 -320 625 -520 855 -85 99 -326 333 -419 407 -249 198
-537 367 -795 467 -44 18 -89 36 -100 41 -61 28 -336 105 -442 124 -14 3 -49
10 -77 15 -68 13 -109 19 -181 26 -33 4 -71 9 -85 12 -30 6 -516 14 -521 8z"/>
</g>
</svg>
