<svg xmlns="http://www.w3.org/2000/svg" viewBox="0 0 911.34 255.87"><defs><style>.cls-1{fill:#f6f6f6;}</style></defs><title>logo</title><g id="Camada_2" class="boingHover" data-name="Camada 2"><g id="Camada_1-2" data-name="Camada 1"><path class="cls-1" d="M766.34,216.38c-3.87,12.43-7.72,24.76-11.59,37.18H693.61l46.73-136,58.37-3.11c-5.32,16.76-10.57,33.27-15.78,49.65a1.51,1.51,0,0,0,.13.32.26.26,0,0,0,.15.09,5.55,5.55,0,0,0,.9.12q19.51,0,39,0a3.6,3.6,0,0,0,.74-.24c-5-16.72-10-33.43-15-50.43,18-1,35.74-1.91,53.63-2.89q24.46,71.27,48.86,142.27l-.14.21s-.08.11-.13.11a10.27,10.27,0,0,1-1.09.1H850.34c-3.65-12.44-7.3-24.82-11-37.31Z"/><path class="cls-1" d="M174.67,147.68l58.38-3.11c0,.72.09,1.37.1,2,0,6.81-.09,13.62.1,20.43a41.18,41.18,0,0,0,4.36,18.27,27.08,27.08,0,0,0,20.89,14.84,36.6,36.6,0,0,0,16.22-.93c9.93-3,16.24-9.71,19.5-19.41a46.48,46.48,0,0,0,2.25-14.67c0-7.24,0-14.48,0-21.72v-2.2l58.38-3.11c0,.73.1,1.26.1,1.8,0,9.2.14,18.41,0,27.61-.38,21.43-6.83,40.77-20.68,57.31-12.26,14.65-28,23.81-46.46,28.32a98,98,0,0,1-36.9,1.78c-17.54-2.42-33.27-9.12-46.69-20.8-14.54-12.64-23.35-28.66-27.39-47.39a106.25,106.25,0,0,1-2.15-21.93c0-5,0-9.94,0-14.91Z"/><path class="cls-1" d="M393,136l135.6-7.23A51.6,51.6,0,0,1,535,141.26a90.24,90.24,0,0,1,4.55,21,123.26,123.26,0,0,1,.62,19.11c-.85,18.51-7.51,34.59-20.37,48A80.16,80.16,0,0,1,488.86,249a111,111,0,0,1-30.31,6.39,175.34,175.34,0,0,1-31.41-.75,147.54,147.54,0,0,1-29.82-6.23,83.49,83.49,0,0,1-28.08-15.68c-3.57-3-6.82-6.35-10.21-9.55-.17-.16-.3-.37-.59-.72L395.71,183a7.82,7.82,0,0,1,.92.7c6.56,6.65,14.55,10.72,23.5,13.07a110,110,0,0,0,32.95,3.7c6.1-.26,12.1-1.08,17.73-3.62,8-3.62,11.93-9.83,12-18.58a29.46,29.46,0,0,0-1.05-8.36,16.06,16.06,0,0,0-8.86-10.47,32.4,32.4,0,0,0-9.31-2.75c-8.91-1.34-17.82-2.71-26.75-4A123,123,0,0,1,416,148.16a74.13,74.13,0,0,1-21.93-11c-.25-.18-.5-.36-.73-.56A4.3,4.3,0,0,1,393,136Z"/><path class="cls-1" d="M546.69,2.19h175V57.26H663.58a52.17,52.17,0,0,0-.17,6.91c0,2.27,0,4.54,0,6.81V91.73L605,88.81V57.39c-2.57-.15-5-.06-7.42-.08s-4.79,0-7.18,0H546.69Z"/><path class="cls-1" d="M95.75,151.89l58.29-3.1c.05.75.13,1.34.13,1.92,0,6.5.1,13,0,19.51-.25,13.65-2.8,26.78-9,39.07-10.34,20.41-26.53,34-48.11,41.26a105,105,0,0,1-42.27,4.88,89.46,89.46,0,0,1-20.2-3.71,65.33,65.33,0,0,1-18.68-9.3A111.32,111.32,0,0,1,0,228.19l38.37-40.31c1.17,1.13,2.24,2.19,3.36,3.21s2.29,2,3.47,3a25.6,25.6,0,0,0,14.46,6.21c5.55.49,11,.39,16.37-1.43,9.61-3.28,15.79-9.8,18.25-19.72a51.48,51.48,0,0,0,1.46-11.65c.06-4.54,0-9.08,0-13.63Z"/><path class="cls-1" d="M536.53,30.18,499.93,69c-.59-.56-1.12-1-1.62-1.55a44,44,0,0,0-17.07-10.17,54.14,54.14,0,0,0-18.95-3.11c-3.86.07-7.73,0-11.58.22A27.53,27.53,0,0,0,433,61.85c-5,4.79-7.11,10.71-6.69,17.65,0,0,0,0-.06.07s-.1.11-.15.11c-1,0-2.08.06-3.12,0C405.32,78.8,387.7,77.9,370,77a11.88,11.88,0,0,1-.13-1.48,82.54,82.54,0,0,1,6.06-28.07,72.4,72.4,0,0,1,33.47-36.58,89.8,89.8,0,0,1,32.47-10,148.37,148.37,0,0,1,31.95,0,115.8,115.8,0,0,1,30.54,7A86.08,86.08,0,0,1,533,26.41c1.11,1.06,2.17,2.17,3.24,3.26A4.12,4.12,0,0,1,536.53,30.18Z"/><path class="cls-1" d="M663.27,253.58H605.08V124.73l58.19-3.11Z"/><path class="cls-1" d="M859.14,101.29c-2,0-3.8,0-5.57,0s-3.55-.15-5.33-.24l-5.14-.29-5.33-.25-5.33-.24-5.32-.3-5.32-.3-5.15-.24-5.33-.24c-1.77-.1-3.56-.09-5.32-.33s-3.37-.07-5-.2-3.55-.15-5.33-.23l-5.32-.3-5.14-.3-5.33-.24-5.33-.25-5.32-.3c-1.78-.1-3.55-.2-5.33-.27s-3.43-.12-5.14-.2-3.55-.18-5.33-.29l-5.3-.32c.08-1.4,30.88-91.49,32-93.79h45Z"/><path class="cls-1" d="M354.87,2.21V75.86c-1.49.45-17-.21-29.17-1-9.65-.64-19.32-1-29.1-1.53V2.4C297.89,2,350.44,1.8,354.87,2.21Z"/><path class="cls-1" d="M174.8,2.18h58c.41,1.3.51,65.63.09,67.95L175,67.22C174.59,65.78,174.44,6,174.8,2.18Z"/><path class="cls-1" d="M95.87,2.18H154v64L95.87,63.25Z"/></g></g></svg>