<svg id="ezIB1aETdA81" xmlns="http://www.w3.org/2000/svg" xmlns:xlink="http://www.w3.org/1999/xlink" viewBox="0 0 60.740000 118.110000" shape-rendering="geometricPrecision" text-rendering="geometricPrecision"><style><![CDATA[#ezIB1aETdA84_to {animation: ezIB1aETdA84_to__to 2000ms linear infinite alternate forwards}@keyframes ezIB1aETdA84_to__to { 0% {transform: translate(-3.070000px,-2.880000px)} 35% {transform: translate(-3.074273px,-14.281540px)} 70% {transform: translate(-3.074273px,-7.196816px)} 100% {transform: translate(-3.074273px,-2.910813px)}}]]></style><path id="ezIB1aETdA82" d="M3.070000,33.250000L3.070000,63.630000C3.370498,80.190834,16.881439,93.458842,33.445000,93.458842C50.008561,93.458842,63.519502,80.190834,63.820000,63.630000L63.820000,33.250000C63.519502,16.689166,50.008561,3.421158,33.445000,3.421158C16.881439,3.421158,3.370498,16.689166,3.070000,33.250000ZM33.450000,9.630000C46.479009,9.668442,57.031558,20.220991,57.070000,33.250000L57.070000,63.630000C56.805442,76.488329,46.306051,86.773919,33.445000,86.773919C20.583949,86.773919,10.084558,76.488329,9.820000,63.630000L9.820000,33.250000C9.858469,20.217101,20.417086,9.662952,33.450000,9.630000Z" transform="matrix(1 0 0 1 -3.07000000000000 -2.88000000000000)" fill="rgb(148,148,148)" stroke="none" stroke-width="1"/><path id="ezIB1aETdA83" d="M33.450000,38.320000C35.310537,38.309031,36.814544,36.800561,36.820000,34.940000L36.820000,24.820000C36.888045,23.570392,36.260070,22.385457,35.187798,21.740179C34.115527,21.094901,32.774473,21.094901,31.702202,21.740179C30.629930,22.385457,30.001955,23.570392,30.070000,24.820000L30.070000,34.940000C30.075492,36.804443,31.585557,38.314508,33.450000,38.320000Z" transform="matrix(1 0 0 1 -3.07000000000000 -2.88000000000000)" fill="rgb(148,148,148)" stroke="none" stroke-width="1"/><g id="ezIB1aETdA84_to" transform="translate(-3.070000,-2.880000)"><path id="ezIB1aETdA84" d="M31.080000,120C31.694080,120.651493,32.549714,121.020813,33.445000,121.020813C34.340286,121.020813,35.195920,120.651493,35.810000,120L44.250000,111.570000C45.556153,110.263847,45.556153,108.146153,44.250000,106.840000C42.943847,105.533847,40.826153,105.533847,39.520000,106.840000L33.450000,112.920000L27.370000,106.840000C26.063847,105.536608,23.948392,105.538847,22.645000,106.845000C21.341608,108.151153,21.343847,110.266608,22.650000,111.570000Z" transform="translate(0,0)" fill="rgb(148,148,148)" stroke="none" stroke-width="1"/></g></svg>