<svg width="787" height="137" viewBox="0 0 787 137" fill="none" xmlns="http://www.w3.org/2000/svg">
<path d="M274.908 34.6607H258.424V103.043H278.048V81.1607L277.754 66.2143L306.405 103.043H322.889V34.6607H303.363V58.1061C303.461 60.7437 303.461 63.8698 303.952 72.0756L274.908 34.6607Z" fill="#09044A"/>
<path d="M336.805 34.6607V103.043H366.241C390.869 103.043 402.153 87.2175 402.153 68.3635C402.153 49.5095 390.477 34.6607 366.241 34.6607H336.805ZM356.036 50.7794H366.241C378.114 50.7794 382.921 58.7899 382.921 68.1681C382.921 77.5462 378.604 86.729 366.241 86.729H356.036V50.7794Z" fill="#09044A"/>
<path d="M431.833 103.043V34.6607H412.503V103.043H431.833Z" fill="#09044A"/>
<path d="M497.658 41.4013C490.299 35.6376 482.253 33.2931 471.951 33.2931C457.429 33.2931 443.202 39.5452 443.202 54.0032C443.202 71.0011 456.153 74.8109 471.166 76.1786C478.721 76.8624 482.646 79.0116 482.646 82.4307C482.646 86.2406 478.23 88.4874 471.853 88.4874C466.064 88.4874 458.508 87.3151 451.738 80.77L441.043 92.9811C450.561 102.945 459.391 105.095 471.755 104.997C487.159 104.899 501.877 98.2563 501.877 82.7238C501.877 66.9958 487.65 61.5252 474.011 60.0599C467.241 59.3761 462.629 58.6922 462.629 54.0032C462.629 50.3887 467.241 48.9233 471.951 48.9233C477.936 48.9233 483.333 50.0956 488.043 53.6124L497.658 41.4013Z" fill="#09044A"/>
<path d="M530.53 51.2679H544.463C549.762 51.2679 552.607 55.3708 552.607 59.8645C552.607 64.3582 549.86 68.2658 544.463 68.2658H530.53V51.2679ZM544.463 84.5798C562.812 84.3845 572.035 73.541 572.035 59.5714C572.035 46.188 562.91 34.6607 544.463 34.6607H511.102V103.043H530.53V84.5798H544.463Z" fill="#09044A"/>
<path d="M580.668 34.6607V103.043H632.966V86.6313H600.096V34.6607H580.668Z" fill="#09044A"/>
<path d="M703.419 103.043H724.221L693.509 34.6607H673.885L643.076 103.043H663.681L668.194 91.8088H698.906L703.419 103.043ZM692.332 75.5924H674.768L683.599 53.8078L692.332 75.5924Z" fill="#09044A"/>
<path d="M736.076 34.6607H714.195V35.4422L740.295 75.7878V103.043H759.723V75.7878L787 35.5399V34.6607H765.119L750.303 58.1061L736.076 34.6607Z" fill="#09044A"/>
<path d="M248.337 68.8519C248.337 46.0903 232.736 33 210.169 33C187.699 33 172 46.3834 172 68.8519C172 91.7112 187.699 104.704 210.169 104.704C232.736 104.704 248.337 91.7112 248.337 68.8519ZM228.91 68.8519C228.91 80.1838 221.551 88.1943 210.169 88.1943C199.179 88.1943 191.428 80.2815 191.428 68.8519C191.428 57.52 199.081 49.5095 210.169 49.5095C221.551 49.5095 228.91 57.1292 228.91 68.8519Z" fill="#09044A"/>
<rect width="137" height="137" rx="68.5" fill="#09044A"/>
<path fill-rule="evenodd" clip-rule="evenodd" d="M67 92.9697C80.372 92.9697 91.2121 82.0142 91.2121 68.5C91.2121 54.9858 80.372 44.0303 67 44.0303L67 21C92.9574 21 114 42.2665 114 68.5C114 94.7335 92.9574 116 67 116L67 92.9697Z" fill="#1EF9DF"/>
</svg>
